<?xml version="1.0" encoding="UTF-8" standalone="no"?><!-- Generator: Gravit.io --><svg xmlns="http://www.w3.org/2000/svg" xmlns:xlink="http://www.w3.org/1999/xlink" style="isolation:isolate" viewBox="0 0 100 100" width="100pt" height="100pt"><defs><clipPath id="_clipPath_FK5msCH40oLeluRAs5JsdTecEe9IJPLY"><rect width="100" height="100"/></clipPath></defs><g clip-path="url(#_clipPath_FK5msCH40oLeluRAs5JsdTecEe9IJPLY)"><path d=" M 68.186 64.84 L 57.409 54.897 C 56.521 54.078 55.687 54.387 55.549 55.588 L 53.872 70.155 C 53.733 71.355 53.292 71.406 52.886 70.267 L 47.964 56.455 C 47.558 55.317 46.676 55.204 45.996 56.202 L 37.741 68.321 C 37.061 69.32 36.646 69.159 36.816 67.963 L 38.876 53.445 C 39.046 52.249 38.318 51.739 37.251 52.307 L 24.31 59.201 C 23.243 59.77 22.951 59.435 23.657 58.454 L 32.228 46.557 C 32.935 45.576 32.527 44.786 31.318 44.794 L 16.656 44.884 C 15.447 44.892 15.344 44.46 16.425 43.92 L 29.543 37.368 C 30.624 36.828 30.63 35.939 29.557 35.384 L 16.532 28.65 C 15.458 28.095 15.567 27.664 16.776 27.689 L 31.436 27.984 C 32.644 28.008 33.063 27.224 32.37 26.234 L 23.966 14.218 C 23.273 13.228 23.57 12.897 24.629 13.48 L 37.472 20.554 C 38.531 21.138 39.266 20.638 39.113 19.439 L 37.256 4.894 C 37.103 3.695 37.519 3.54 38.186 4.549 L 46.271 16.781 C 46.937 17.79 47.82 17.689 48.242 16.556 L 53.357 2.814 C 53.778 1.681 54.219 1.738 54.341 2.94 L 55.814 17.529 C 55.936 18.731 56.765 19.053 57.665 18.245 L 68.58 8.454 C 69.479 7.647 69.843 7.902 69.392 9.024 L 63.918 22.626 C 63.466 23.747 64.051 24.417 65.223 24.121 L 79.438 20.523 C 80.61 20.227 80.813 20.622 79.893 21.405 L 68.724 30.905 C 67.803 31.688 68.01 32.553 69.185 32.835 L 83.443 36.256 C 84.619 36.538 84.616 36.983 83.437 37.248 L 69.132 40.47 C 67.953 40.735 67.734 41.597 68.644 42.393 L 79.679 52.048 C 80.589 52.844 80.379 53.236 79.212 52.923 L 65.049 49.128 C 63.881 48.815 63.287 49.477 63.722 50.604 L 69.007 64.282 C 69.442 65.409 69.075 65.659 68.186 64.84 Z " fill="rgb(255,180,69)"/><path d="M 33.199 72.33 L 64.031 72.33 C 66.508 72.33 68.52 74.324 68.52 76.78 L 68.52 76.78 C 68.52 79.236 66.508 81.23 64.031 81.23 L 33.199 81.23 C 30.722 81.23 28.71 79.236 28.71 76.78 L 28.71 76.78 C 28.71 74.324 30.722 72.33 33.199 72.33 Z" style="stroke:none;fill:#AAAAAA;stroke-miterlimit:10;"/><path d="M 33.199 86.52 L 64.031 86.52 C 66.508 86.52 68.52 88.514 68.52 90.97 L 68.52 90.97 C 68.52 93.426 66.508 95.42 64.031 95.42 L 33.199 95.42 C 30.722 95.42 28.71 93.426 28.71 90.97 L 28.71 90.97 C 28.71 88.514 30.722 86.52 33.199 86.52 Z" style="stroke:none;fill:#AAAAAA;stroke-miterlimit:10;"/></g></svg>